<?xml version="1.0" encoding="UTF-8"?>
<svg width="400px" height="400px" viewBox="0 0 400 400" version="1.1" xmlns="http://www.w3.org/2000/svg">
    <g stroke="none" stroke-width="1" fill="none" fill-rule="evenodd">
        <rect fill="#333333" x="0" y="0" width="400" height="400"></rect>
        <g transform="translate(20, 20)" fill="#FFA500">
            <rect x="0" y="0" width="80" height="80"></rect>
            <rect x="90" y="0" width="80" height="80"></rect>
            <rect x="180" y="0" width="80" height="80"></rect>
            <rect x="270" y="0" width="80" height="80"></rect>
            
            <rect x="0" y="90" width="80" height="80"></rect>
            <rect x="90" y="90" width="80" height="80"></rect>
            <rect x="180" y="90" width="80" height="80"></rect>
            <rect x="270" y="90" width="80" height="80"></rect>
            
            <rect x="0" y="180" width="80" height="80"></rect>
            <rect x="90" y="180" width="80" height="80"></rect>
            <rect x="180" y="180" width="80" height="80"></rect>
            <rect x="270" y="180" width="80" height="80"></rect>
            
            <rect x="0" y="270" width="80" height="80"></rect>
            <rect x="90" y="270" width="80" height="80"></rect>
            <rect x="180" y="270" width="80" height="80"></rect>
            <rect x="270" y="270" width="80" height="80"></rect>
        </g>
    </g>
</svg>
